<svg width="32" height="32" viewBox="0 0 32 32" fill="none" xmlns="http://www.w3.org/2000/svg">
<rect width="32" height="32" rx="4" fill="#83B3D3"/>
<path d="M4.25439 8.18188L15.9271 21.9637L27.5635 8.25461L4.25439 8.18188Z" fill="#23A9E1"/>
<path d="M13.1275 13.3455H19.4184C18.9457 13.0546 17.8184 11.6728 17.2366 12.1819C17.2002 12.2183 15.4548 10.1092 14.3275 11.1274C13.3457 12.0364 12.8729 11.0183 11.782 11.7092C10.4729 12.5819 12.5093 13.0546 13.1275 13.3455ZM22.8366 12.0728L19.2729 12.1092C20.6911 10.4728 21.3093 10.6546 22.8366 12.0728Z" fill="white"/>
<path d="M26.4 9.30909V8.43636H27.1636L26.4 9.30909ZM8.50909 12.7273C8.54546 12.7636 9.38182 11.8545 10.7273 10.9455C11.9636 10.1091 13.8545 9.16364 15.9636 9.16364C18.0727 9.16364 20 10.1455 21.2364 10.9818C22.5818 11.8545 23.4182 12.7273 23.4545 12.7636L22.5455 13.8545C20.9091 14.0727 19.7455 15.2727 18.1455 15.0182C17.3455 14.8727 17.3091 14.4364 17.0909 13.9636C16.9091 13.6 16.6182 13.6727 16.2545 13.5273C15.9273 13.3818 15.7091 13.1273 15.0182 13.2727C14.4364 13.4182 14.3636 14.3273 13.6 14.2909C13.2 14.2545 13.1636 13.7091 12.5818 12.9818C11.0909 11.2 9.73112 11.422 8.78567 13.0583L8.50909 12.7273ZM5.45455 8.43636V9.12727L4.87273 8.43636H5.45455ZM25.0545 8.43636H26.2182V9.52727L25.0545 10.9091V8.43636ZM23.5636 12.5818V8.43636H24.8364V11.1273L23.5636 12.5818ZM23.3818 8.8V12.4C22.9818 12 22.5455 11.6364 22.0727 11.3091L23.3818 8.8ZM21.8909 8.69091V11.1636C21.7091 11.0545 21.5636 10.9091 21.3455 10.8C21.0909 10.6545 20.8364 10.4727 20.5455 10.3273L21.8909 8.69091ZM20.2909 8.61818V10.1818C19.9273 10 19.5273 9.81818 19.1636 9.63636L20.2909 8.61818ZM20.5091 8.43636H21.8545L20.5091 10.1091V8.43636ZM22.0727 8.43636H23.3818L22.0727 11.0182V8.43636ZM18.8727 8.43636H20.2909L19.0182 9.56364C18.9818 9.56364 18.9455 9.52727 18.9091 9.52727L18.8727 8.43636ZM18.6909 8.58182V9.45455C18.3273 9.30909 17.9636 9.2 17.5636 9.12727L18.6909 8.58182ZM17.1636 8.58182V9.05455C16.9091 9.01818 16.6545 8.98182 16.3636 8.94545L17.1636 8.58182ZM14.6909 8.58182L15.4909 8.94545C15.2 8.94545 14.9455 8.98182 14.6909 9.05455V8.58182ZM13.2 8.58182L14.3273 9.12727C13.9273 9.2 13.5636 9.30909 13.2 9.45455V8.58182ZM14.5091 9.01818L13.3091 8.43636H14.5091V9.01818ZM15.7818 8.87273L14.7636 8.4H15.7818V8.87273ZM16.0364 8.43636H17.0909L16.0364 8.90909V8.43636ZM17.3818 8.43636H18.5455L17.3818 9.01818V8.43636ZM12.8727 9.56364L11.6 8.43636H13.0182V9.52727L12.8727 9.56364ZM11.5636 8.61818L12.6909 9.6C12.2909 9.74545 11.9273 9.92727 11.5636 10.1455V8.61818ZM10 8.69091L11.3091 10.3273C10.8364 10.5818 10.4 10.8727 10 11.2V8.69091ZM8.47273 8.8L9.78182 11.3455C9.30909 11.7091 8.87273 12.0727 8.47273 12.5091V8.8ZM9.81818 10.9818L8.50909 8.4H9.81818V10.9818ZM11.3818 10.0727L10.0364 8.4H11.3818V10.0727ZM6.8 10.7273L5.63636 9.34545V8.43636H6.8V10.7273ZM7.01818 8.43636H8.29091V12.5091L7.01818 10.9818V8.43636ZM4 8V13.3091L16 27.8182L28 13.4545V8H4Z" fill="#491213"/>
<path d="M15.0547 24.7272L16.0002 23.2L16.9456 24.7272L16.0002 26.2545L15.0547 24.7272Z" fill="#23A9E1"/>
<path d="M17.8907 19.1272C16.6544 18.3999 16.9453 17.8545 17.9635 17.3454C18.5089 17.0909 19.7089 16.109 20.1817 16.4363L17.8907 19.1272ZM17.0544 20.0363C16.3271 19.9999 15.4907 19.8909 14.7635 20.0727C15.1998 20.1818 16.2907 20.509 15.2726 20.7636C15.6362 21.2727 16.218 21.2363 16.5817 20.7999C16.4362 20.7272 16.3271 20.6181 16.218 20.5454C16.618 20.4363 16.9817 20.2181 17.0544 20.0363ZM17.4907 19.4545C17.1635 19.1636 16.7998 19.1636 16.5089 19.4545C16.0726 18.6909 14.5453 18.9454 13.818 18.8363C14.218 19.7818 17.3089 19.9636 17.4907 19.4545ZM15.018 18.6545C14.4362 18.4727 12.5453 18.509 13.7817 17.9999C14.1817 17.8545 16.218 18.0363 15.018 18.6545ZM15.7453 17.5636C15.5635 17.1636 15.8907 16.6908 16.3635 17.0545C16.7998 17.3454 16.1453 17.7818 15.7453 17.5636ZM14.6908 17.5999C13.8544 17.8545 12.7635 17.309 14.1089 17.0545C14.9453 16.8727 15.818 17.2363 14.6908 17.5999C14.6544 17.5999 14.7271 17.5999 14.6908 17.5999ZM13.7453 15.3454C13.5635 15.9272 13.1998 16.0363 13.2362 15.3454C13.2726 14.509 13.818 14.7272 14.3998 14.3999C14.8726 14.1454 15.1271 13.1636 15.9635 13.7454C16.3271 13.9999 16.7635 13.7818 16.8726 14.1818C16.8726 14.1454 15.818 16.6181 16.3998 16.6181C15.2362 16.6181 15.7453 15.2363 16.1817 14.2908C15.7453 14.509 15.0544 15.8545 15.6362 16.109C15.3453 16.509 14.3998 17.0545 13.9271 16.6545C13.5271 16.2908 13.7453 15.8181 13.7453 15.3454ZM12.2908 16.3636C10.2544 16.3636 11.6362 13.2363 12.3271 13.4181C13.1271 13.6727 13.018 16.3999 12.2908 16.3636ZM10.0362 13.3818C9.09075 13.3454 9.49075 12.4363 10.1453 12.2545C10.7635 12.0727 12.0362 12.6545 12.4726 13.0545C11.818 13.2727 10.9817 13.2363 10.2544 13.2727C10.1817 12.5454 9.99984 12.7999 10.0362 13.3818Z" fill="#DC6243"/>
<path d="M17.0183 17.3819C15.9638 16.291 18.582 16.4001 19.0183 16.0001C19.3093 16.1092 21.5638 14.0364 22.1093 14.1819C21.7093 14.6546 20.8729 16.1092 20.2911 16.1092C19.8183 16.1092 19.3456 16.0364 18.982 16.3637C18.4365 16.8728 17.5638 17.1273 17.0183 17.3819Z" fill="#F49774"/>
<path d="M17.3457 16.0727C16.7639 16.4 16.2184 15.1636 17.2366 15.2727C17.8912 15.3454 18.5821 15.2 19.2002 15.3091C18.7275 15.8545 18.073 16.1454 17.3457 16.0727Z" fill="#F4B1A4"/>
</svg>
